<svg xmlns="http://www.w3.org/2000/svg" viewBox="0 0 64 64" fill="none">
  <rect width="64" height="64" rx="18" fill="#17353D"/>
  <path d="M17 25.5C17 22.4624 19.4624 20 22.5 20H41.5C44.5376 20 47 22.4624 47 25.5V27H17V25.5Z" fill="#F7ECE5"/>
  <path d="M21 31H43L40.8 38.7C40.0207 41.4275 37.5282 43.3 34.6915 43.3H29.3085C26.4718 43.3 23.9793 41.4275 23.2 38.7L21 31Z" fill="#D26743"/>
  <circle cx="23.5" cy="47.5" r="2.5" fill="#F7ECE5"/>
  <circle cx="40.5" cy="47.5" r="2.5" fill="#F7ECE5"/>
  <path d="M27 18.5C27 16.567 28.567 15 30.5 15H33.5C35.433 15 37 16.567 37 18.5V20H27V18.5Z" fill="#D26743"/>
</svg>
